<svg width="17" height="18" viewBox="0 0 17 18" fill="none" xmlns="http://www.w3.org/2000/svg">
<path d="M9.64135 0.519531H7.57252C7.16643 0.519407 6.76786 0.619736 6.41907 0.809886C6.07028 1.00003 5.78424 1.27292 5.59129 1.59962V7.98096H11.6671V1.69143C11.485 1.34102 11.1981 1.04496 10.8396 0.837548C10.4811 0.630136 10.0656 0.51987 9.64135 0.519531ZM10.0929 5.98467H9.43918V6.58233C9.43918 6.78332 9.35186 6.97608 9.19641 7.11821C9.04097 7.26033 8.83014 7.34018 8.6103 7.34018C8.39047 7.34018 8.17964 7.26033 8.0242 7.11821C7.86875 6.97608 7.78142 6.78332 7.78142 6.58233V5.98467H7.12775C6.68299 5.98467 6.32044 5.66551 6.30022 5.26318C6.30802 5.06666 6.39838 4.88047 6.55252 4.74333C6.70665 4.60619 6.91269 4.52866 7.12775 4.52689H7.78142V3.91691C7.78142 3.4887 8.15206 3.14305 8.6103 3.14305C9.06855 3.14305 9.43918 3.4887 9.43918 3.91691V4.52689H10.0929C10.5376 4.52689 10.9002 4.85837 10.9211 5.26318C10.9108 5.4577 10.8191 5.64116 10.6649 5.77549C10.5107 5.90983 10.3059 5.98474 10.0929 5.98467ZM15.5581 7.98096H12.3409V1.83252C14.1901 2.30387 15.5527 3.88426 15.5581 5.75855V7.97973V7.98096ZM4.9174 7.98096V1.81958C3.03861 2.27429 1.65579 3.86701 1.65579 5.75855V7.97973H4.9174V7.98096ZM1.60862 8.56629H15.5918C16.3735 8.56629 17.0002 9.1393 17.0002 9.85402C17.0002 10.5626 16.3667 11.1417 15.5918 11.1417H14.2521V12.2446C14.2521 13.4079 13.8316 14.4812 13.1213 15.345C13.2082 15.6205 13.1334 15.9298 12.8969 16.1472C12.3353 16.6658 11.6666 17.0772 10.9297 17.3577C10.1929 17.6382 9.40242 17.7822 8.60424 17.7812C7.8067 17.7809 7.01707 17.6367 6.28066 17.3567C5.54425 17.0767 4.87555 16.6665 4.31293 16.1497C4.19974 16.0465 4.11896 15.9173 4.07901 15.7758C4.03906 15.6342 4.04142 15.4855 4.08583 15.345C3.35013 14.4515 2.95314 13.363 2.95504 12.2446V11.1417H1.60862C0.833649 11.1417 0.200195 10.5626 0.200195 9.85402C0.200195 9.14546 0.833649 8.56629 1.60862 8.56629ZM13.279 12.2446V11.1417H3.92814V12.2446C3.92814 13.1861 4.26104 14.0561 4.82508 14.7622C5.09194 14.7295 5.37093 14.8071 5.57579 14.9945C5.97254 15.3595 6.44427 15.6492 6.96387 15.8471C7.48347 16.0449 8.04071 16.1469 8.60356 16.1472C9.78556 16.1472 10.8537 15.7098 11.6293 14.9963C11.8335 14.8078 12.1145 14.7295 12.382 14.7622C12.966 14.0315 13.28 13.1496 13.2783 12.2446H13.279Z" fill="#43414D"/>
</svg>
