<svg width="19" height="25" viewBox="0 0 19 25" fill="none" xmlns="http://www.w3.org/2000/svg">
<path fillRule="evenodd" clip-rule="evenodd" d="M16.5312 22.6562V9.375H12.2344C11.5092 9.375 10.8137 9.08692 10.3009 8.57412C9.78808 8.06133 9.5 7.36583 9.5 6.64062V2.34375H2.46875V22.6562H16.5312ZM16.3422 7.03125L11.8438 2.53281V6.64062C11.8438 6.85625 12.0188 7.03125 12.2344 7.03125H16.3422ZM0.125 1.5625C0.125 1.1481 0.28962 0.750671 0.582646 0.457646C0.875671 0.16462 1.2731 0 1.6875 0L11.9781 0C12.3925 8.84959e-05 12.7899 0.164767 13.0828 0.457813L18.4172 5.79219C18.7102 6.08514 18.8749 6.48251 18.875 6.89687V23.4375C18.875 23.8519 18.7104 24.2493 18.4174 24.5424C18.1243 24.8354 17.7269 25 17.3125 25H1.6875C1.2731 25 0.875671 24.8354 0.582646 24.5424C0.28962 24.2493 0.125 23.8519 0.125 23.4375V1.5625ZM9.10938 17.9688C8.79857 17.9688 8.5005 18.0922 8.28073 18.312C8.06097 18.5318 7.9375 18.8298 7.9375 19.1406C7.9375 19.4514 8.06097 19.7495 8.28073 19.9693C8.5005 20.189 8.79857 20.3125 9.10938 20.3125H13.0156C13.3264 20.3125 13.6245 20.189 13.8443 19.9693C14.064 19.7495 14.1875 19.4514 14.1875 19.1406C14.1875 18.8298 14.064 18.5318 13.8443 18.312C13.6245 18.0922 13.3264 17.9688 13.0156 17.9688H9.10938ZM6.8125 9.71875C6.59035 9.51175 6.29653 9.39906 5.99293 9.40441C5.68934 9.40977 5.39967 9.53276 5.18497 9.74747C4.97026 9.96217 4.84727 10.2518 4.84191 10.5554C4.83656 10.859 4.94925 11.1529 5.15625 11.375L7.0625 13.2812L5.15625 15.1875C5.04111 15.2948 4.94877 15.4242 4.88472 15.5679C4.82067 15.7117 4.78623 15.8668 4.78345 16.0242C4.78067 16.1815 4.80962 16.3378 4.86856 16.4837C4.9275 16.6297 5.01522 16.7622 5.1265 16.8735C5.23778 16.9848 5.37033 17.0725 5.51625 17.1314C5.66217 17.1904 5.81847 17.2193 5.97582 17.2165C6.13316 17.2138 6.28834 17.1793 6.43209 17.1153C6.57584 17.0512 6.70522 16.9589 6.8125 16.8438L9.54688 14.1094L10.375 13.2812L9.54688 12.4531L6.8125 9.71875Z" fill="#6D6D6D"/>
</svg>
